# File created by Blade
# Date/Time:  Wed Jan 21 19:14:05 2015
#---------------------------------------------------------
:version 1.10
:name HOM
:units
  mass 1.0
  length 1.000000
  angle deg
:documentation
     Acclaim Skeleton File
:root
   axis xyz
   order TX TY TZ RX RY RZ
   position 0.000000 0.000000 0.000000
   orientation 0 0 0
:bonedata
   begin
      id 1
      name RightUpLeg_dum
      direction -1.000000 0.000000 0.000000
      length 3.693983
      axis 0.0 0.0 0.0 xyz
   end
   begin
      id 2
      name LeftUpLeg_dum
      direction 1.000000 0.000000 0.000000
      length 3.693983
      axis 0.0 0.0 0.0 xyz
   end
   begin
      id 3
      name Spine_dum
      direction 0.000000 1.000000 0.000000
      length 2.392956
      axis 0.0 0.0 0.0 xyz
   end
   begin
      id 4
      name RightUpLeg
      direction 0.000000 -1.000000 0.000000
      length 15.795667
      axis 0.0 0.0 0.0 xyz
      dof rx ry rz
   end
   begin
      id 5
      name RightLeg
      direction 0.000000 -1.000000 0.000000
      length 14.766989
      axis 0.0 0.0 0.0 xyz
      dof rx ry rz
   end
   begin
      id 6
      name RightFoot
      direction 0.000000 -0.258819 0.965926
      length 4.962790
      axis 15.0 0.0 0.0 xyz
      dof rx ry rz
   end
   begin
      id 7
      name RightToeBase
      direction 0.000000 0.000000 1.000000
      length 2.952750
      axis 0.0 0.0 0.0 xyz
      dof rx ry rz
   end
   begin
      id 8
      name LeftUpLeg
      direction 0.000000 -1.000000 0.000000
      length 15.795667
      axis 0.0 0.0 0.0 xyz
      dof rx ry rz
   end
   begin
      id 9
      name LeftLeg
      direction 0.000000 -1.000000 0.000000
      length 14.766989
      axis 0.0 0.0 0.0 xyz
      dof rx ry rz
   end
   begin
      id 10
      name LeftFoot
      direction 0.000000 -0.258819 0.965926
      length 4.962790
      axis 15.0 0.0 0.0 xyz
      dof rx ry rz
   end
   begin
      id 11
      name LeftToeBase
      direction 0.000000 0.000000 1.000000
      length 2.952750
      axis 0.0 0.0 0.0 xyz
      dof rx ry rz
   end
   begin
      id 12
      name Spine
      direction 0.000000 1.000000 0.000000
      length 0.000000
      axis 0.0 0.0 0.0 xyz
      dof rx ry rz
   end
   begin
      id 13
      name Spine_dum1
      direction 0.000000 1.000000 0.000000
      length 13.207411
      axis 0.0 0.0 0.0 xyz
   end
   begin
      id 14
      name Spine_dum2
      direction 0.000000 1.000000 0.000000
      length 13.207411
      axis 0.0 0.0 0.0 xyz
   end
   begin
      id 15
      name Spine_dum3
      direction 0.000000 1.000000 0.000000
      length 19.250100
      axis 0.0 0.0 0.0 xyz
   end
   begin
      id 16
      name RightShoulder
      direction -1.000000 0.000000 0.000000
      length 8.140465
      axis 0.0 0.0 90.0 xyz
      dof rx ry rz
   end
   begin
      id 17
      name RightArm
      direction -1.000000 0.000000 0.000000
      length 10.649840
      axis 0.0 0.0 90.0 xyz
      dof rx ry rz
   end
   begin
      id 18
      name RightForeArm
      direction -1.000000 0.000000 0.000000
      length 8.304624
      axis 0.0 0.0 90.0 xyz
      dof ry rz rx
   end
   begin
      id 19
      name RightHand
      direction -1.000000 0.000000 0.000000
      length 0.000000
      axis 0.0 0.0 90.0 xyz
      dof rx ry rz
   end
   begin
      id 20
      name RightHand_dum1
      direction -1.000000 0.000000 0.000000
      length 3.937000
      axis 0.0 0.0 90.0 xyz
   end
   begin
      id 21
      name RightHand_dum2
      direction 0.000000 0.000000 0.000000
      length 0.000000
      axis 0.0 0.0 90.0 xyz
   end
   begin
      id 22
      name RightHandThumb1
      direction 0.000000 0.000000 1.000000
      length 3.937000
      axis 0.0 0.0 90.0 xyz
      dof rx rz ry
   end
   begin
      id 23
      name LeftShoulder
      direction 1.000000 0.000000 0.000000
      length 8.140465
      axis 0.0 0.0 -90.0 xyz
      dof rx ry rz
   end
   begin
      id 24
      name LeftArm
      direction 1.000000 0.000000 0.000000
      length 10.649840
      axis 0.0 0.0 -90.0 xyz
      dof rx ry rz
   end
   begin
      id 25
      name LeftForeArm
      direction 1.000000 0.000000 0.000000
      length 8.304624
      axis 0.0 0.0 -90.0 xyz
      dof ry rz rx
   end
   begin
      id 26
      name LeftHand
      direction 1.000000 0.000000 0.000000
      length 0.000000
      axis 0.0 0.0 -90.0 xyz
      dof rx ry rz
   end
   begin
      id 27
      name LeftHand_dum1
      direction 1.000000 0.000000 0.000000
      length 3.937000
      axis 0.0 0.0 -90.0 xyz
   end
   begin
      id 28
      name LeftHand_dum2
      direction 0.000000 0.000000 0.000000
      length 0.000000
      axis 0.0 0.0 -90.0 xyz
   end
   begin
      id 29
      name LeftHandThumb1
      direction 0.000000 0.000000 1.000000
      length 3.937000
      axis 0.0 0.0 -90.0 xyz
      dof rx rz ry
   end
   begin
      id 30
      name Head
      direction 0.000000 1.000000 0.000000
      length 4.527550
      axis 0.0 0.0 0.0 xyz
      dof rx ry rz
   end
:hierarchy
   begin
      root RightUpLeg_dum LeftUpLeg_dum Spine_dum
      RightUpLeg_dum RightUpLeg
      LeftUpLeg_dum LeftUpLeg
      Spine_dum Spine
      RightUpLeg RightLeg
      RightLeg RightFoot
      RightFoot RightToeBase
      LeftUpLeg LeftLeg
      LeftLeg LeftFoot
      LeftFoot LeftToeBase
      Spine Spine_dum1 Spine_dum2 Spine_dum3
      Spine_dum1 RightShoulder
      Spine_dum2 LeftShoulder
      Spine_dum3 Head
      RightShoulder RightArm
      RightArm RightForeArm
      RightForeArm RightHand
      RightHand RightHand_dum1 RightHand_dum2
      RightHand_dum2 RightHandThumb1
      LeftShoulder LeftArm
      LeftArm LeftForeArm
      LeftForeArm LeftHand
      LeftHand LeftHand_dum1 LeftHand_dum2
      LeftHand_dum2 LeftHandThumb1
   end

# File created by Blade
# Date/Time:  Wed Jan 21 19:13:57 2015
# Frame Rate: 120.000 fps
#------------------------------------------------------
:FULLY-SPECIFIED
:DEGREES
109
root -4.269483 33.259147 -3.783320 52.649370 55.822501 -2.093066
RightUpLeg -34.634137 -12.484090 8.240537
RightLeg -3.064635 -0.000000 0.000000
RightFoot 4.063861 -6.117044 21.058738
RightToeBase -0.237074 -0.000000 0.000000
LeftUpLeg -51.028898 8.803341 -15.137357
LeftLeg -2.547670 -0.000000 0.000000
LeftFoot -1.119379 -2.579523 -1.948846
LeftToeBase 5.799121 -0.000000 -0.000000
Spine -49.790520 -2.946855 0.280520
RightShoulder -18.142845 5.216505 -31.667633
RightArm -11.022845 -13.773582 80.483541
RightForeArm 11.842935 -0.000000 1.331844
RightHand 10.856817 -0.000000 -0.364006
RightHandThumb1 -24.326973 -0.000000 -32.862282
LeftShoulder -8.002280 0.450474 36.446899
LeftArm 34.869104 1.016727 -48.965461
LeftForeArm 10.295645 -0.000000 0.338307
LeftHand -17.535690 -0.000000 -3.639374
LeftHandThumb1 -26.253704 0.000000 33.147579
Head 1.999663 -6.059530 10.509485
110
root -4.251980 33.234620 -3.774703 52.658738 56.385206 -2.247453
RightUpLeg -34.618944 -12.213718 8.098366
RightLeg -2.929275 -0.000000 0.000000
RightFoot 4.044440 -5.940981 20.655884
RightToeBase -0.548698 -0.000000 0.000000
LeftUpLeg -51.218729 8.752549 -15.071272
LeftLeg -2.466283 -0.000000 0.000000
LeftFoot -1.419746 -2.851977 -1.702745
LeftToeBase 5.929549 -0.000000 -0.000000
Spine -49.778350 -3.074904 0.366835
RightShoulder -18.178749 5.194013 -31.500221
RightArm -11.099711 -13.912863 80.798412
RightForeArm 11.743340 -0.000000 1.215361
RightHand 10.737071 -0.000000 0.018372
RightHandThumb1 -24.326973 -0.000000 -32.862282
LeftShoulder -7.933270 0.469375 36.498340
LeftArm 35.028476 0.934356 -48.926033
LeftForeArm 10.368381 -0.000000 0.421431
LeftHand -17.359710 -0.000000 -3.600737
LeftHandThumb1 -26.253704 0.000000 33.147579
Head 1.858376 -6.082473 10.679109
111
root -4.233674 33.208236 -3.765831 52.718319 56.957516 -2.389146
RightUpLeg -34.634794 -11.920308 7.928895
RightLeg -2.798645 -0.000000 0.000000
RightFoot 4.004543 -5.738728 20.551851
RightToeBase -0.823205 -0.000000 0.000000
LeftUpLeg -51.411397 8.604977 -14.868362
LeftLeg -2.393453 -0.000000 0.000000
LeftFoot -1.727323 -3.062767 -1.468505
LeftToeBase 6.076994 -0.000000 -0.000000
Spine -49.817705 -3.224035 0.460238
RightShoulder -18.210794 5.154521 -31.318014
RightArm -11.126500 -13.899626 81.039480
RightForeArm 11.802382 -0.000000 1.051322
RightHand 10.618610 -0.000000 0.628072
RightHandThumb1 -24.326973 -0.000000 -32.862282
LeftShoulder -7.860976 0.487340 36.567749
LeftArm 35.176170 0.989170 -48.780968
LeftForeArm 10.148509 0.000000 0.559645
LeftHand -17.377224 -0.000000 -3.654360
LeftHandThumb1 -26.253704 0.000000 33.147579
Head 1.742151 -6.118790 10.880368
112
root -4.215683 33.182375 -3.761546 52.852052 57.509778 -2.469060
RightUpLeg -34.677175 -11.611071 7.713362
RightLeg -2.679916 -0.000000 0.000000
RightFoot 3.917821 -5.576168 20.619363
RightToeBase -1.058592 -0.000000 0.000000
LeftUpLeg -51.605203 8.394109 -14.639359
LeftLeg -2.346122 -0.000000 0.000000
LeftFoot -2.018169 -3.281387 -1.362958
LeftToeBase 6.294263 -0.000000 -0.000000
Spine -49.871293 -3.388027 0.541560
RightShoulder -18.279032 5.147395 -31.157815
RightArm -11.165250 -13.964195 81.291999
RightForeArm 11.804905 -0.000000 0.947891
RightHand 10.465684 -0.000000 0.810686
RightHandThumb1 -24.326973 -0.000000 -32.862282
LeftShoulder -7.832628 0.493918 36.603494
LeftArm 35.343374 0.903495 -48.720525
LeftForeArm 10.252613 -0.000000 0.663256
LeftHand -17.391605 -0.000000 -3.514261
LeftHandThumb1 -26.253704 0.000000 33.147579
Head 1.606839 -6.160311 11.050041
113
root -4.198384 33.157330 -3.754914 53.041771 58.086116 -2.502747
RightUpLeg -34.746667 -11.382309 7.565236
RightLeg -2.564336 -0.000000 0.000000
RightFoot 3.856776 -5.315204 20.585975
RightToeBase -1.049398 -0.000000 0.000000
LeftUpLeg -51.788041 8.124468 -14.332123
LeftLeg -2.314026 -0.000000 0.000000
LeftFoot -2.262749 -3.534584 -1.379107
LeftToeBase 6.518726 -0.000000 -0.000000
Spine -49.947686 -3.590798 0.632072
RightShoulder -18.353904 5.129701 -31.004227
RightArm -11.219814 -14.078789 81.551049
RightForeArm 11.935894 -0.000000 0.898252
RightHand 10.371483 0.000000 1.017089
RightHandThumb1 -24.326973 -0.000000 -32.862282
LeftShoulder -7.827512 0.391480 36.638085
LeftArm 35.463221 1.038959 -48.540348
LeftForeArm 10.078536 -0.000000 0.711118
LeftHand -17.399743 -0.000000 -3.435806
LeftHandThumb1 -26.253704 0.000000 33.147579
Head 1.505405 -6.203493 11.223080
